<svg viewBox="0 0 48 48" xmlns="http://www.w3.org/2000/svg"><path d="m22.96 3.36c15.41-.64 25.84 15.85 18.62 29.56-5.04 9.57-16.97 13.49-26.74 8.68-2.27 1.24-4.66 2.2-7.23 2.59-.94.14-1.92.25-2.42-.77s.09-1.62.55-2.49c.84-1.59 1.69-3.18 2.19-4.92-3.92-5.01-5.27-11.51-3.65-17.69 2.24-8.52 9.87-14.6 18.68-14.96zm-13.14 36.84c.16.13 2.78-1.19 3.15-1.38.5-.26 1.03-.74 1.6-.79.87-.08 1.57.51 2.32.84 10.17 4.52 21.88-1.93 23.51-12.87 1.83-12.27-9.81-22.26-21.69-18.58-10.87 3.38-15.3 16.53-8.66 25.85.39.55 1.24 1.37 1.32 2.02s-.23 1.62-.42 2.23c-.29.92-.7 1.81-1.13 2.68z"/><path d="m17.88 23.2c-.24-.23-.21-.57-.08-.85.48-1.05 2.12-2.9 3.04-3.63 1.49-1.18 3.95-2 5.58-.64 1.15.95 1.04 2.17.71 3.48-.85 3.32-2.27 6.62-3.22 9.94-.1.35-.4 1.26-.38 1.57 0 .16.14.31.31.31.28 0 1.22-.83 1.45-1.06.43-.45.81-1.22 1.19-1.58.55-.53 1.2-.14 1.04.6-.06.3-1.07 1.64-1.32 1.95-1.5 1.88-3.97 3.88-6.55 2.94-1.92-.69-1.93-2.45-1.47-4.13.9-3.32 2.28-6.57 3.21-9.9.1-.36.26-.83.3-1.2.15-1.38-1.55.33-1.87.68-.34.38-.6.88-.92 1.24-.25.28-.66.6-1 .26z"/><path d="m26.13 9.79c4.06-.09 4.38 5.85.43 6.2-4.46.4-4.71-6.11-.43-6.2z"/></svg>